PathFileType	4	(X/Y/Z)	C:\Users\chris\Documents\GitHub\baseballds\vids\pitch1_Sports2D\pitch1_Sports2D_px_person00.trc
DataRate	CameraRate	NumFrames	NumMarkers	Units	OrigDataRate	OrigDataStartFrame	OrigNumFrames
30	30	12	22	m	30	38	154
Frame#	Time	Hip			RHip			RKnee			RAnkle			RBigToe			RSmallToe			RHeel			LHip			LKnee			LAnkle			LBigToe			LSmallToe			LHeel			Neck			Head			Nose			RShoulder			RElbow			RWrist			LShoulder			LElbow			LWrist		
		X1	Y1	Z1	X2	Y2	Z2	X3	Y3	Z3	X4	Y4	Z4	X5	Y5	Z5	X6	Y6	Z6	X7	Y7	Z7	X8	Y8	Z8	X9	Y9	Z9	X10	Y10	Z10	X11	Y11	Z11	X12	Y12	Z12	X13	Y13	Z13	X14	Y14	Z14	X15	Y15	Z15	X16	Y16	Z16	X17	Y17	Z17	X18	Y18	Z18	X19	Y19	Z19	X20	Y20	Z20	X21	Y21	Z21	X22	Y22	Z22
38	1.2666666666666666	734.4795918529529	527.0209278617699	0.0	683.207770034318	538.3193060823312	0.0	685.7313194360567	735.1911348432955	0.0	683.9935879765262	897.2297893354157	0.0	693.3797479269106	957.0255599982225	0.0	661.4938061401399	954.6362240541137	0.0	691.0904271457205	915.3090861446408	0.0	786.3064787986011	540.843663039301	0.0	791.3162726189819	729.7729803185726	0.0	822.2777112307333	893.7423765426081	0.0	788.4830927255371	951.7393541980799	0.0	822.8832955038556	949.5481065628285	0.0	832.7635694708414	914.1924514393509	0.0	742.0640089414285	261.2844279940582	0.0	765.9935871733096	152.12976570272252	0.0	766.5249562455926	243.64023216857993	0.0	645.6351019978136	302.36970347530064	0.0	610.1538155391604	430.41112563667696	0.0	689.0085959984903	438.033347028279	0.0	826.3923086299553	300.7188533766756	0.0	847.7168322807221	428.31353980021413	0.0	789.8006796929817	468.37241900043864	0.0
39	1.3	738.1293433834468	525.5256691412844	0.0	686.2831535608461	536.3645217094924	0.0	689.0388129585094	733.8436244336834	0.0	687.686700716271	897.0126405216812	0.0	696.6526593639451	955.8180676294646	0.0	664.8712966005644	953.3935772782359	0.0	694.7325485529177	914.8447394844491	0.0	789.4430643647811	538.851757576561	0.0	794.106057294369	729.0854206104812	0.0	825.272166607441	893.144456886468	0.0	791.415589519914	951.3801379674258	0.0	826.0729808241241	949.4251412703711	0.0	835.2087736888991	913.8780405774055	0.0	744.4809296798298	260.13849762764664	0.0	769.3240013484424	148.42816089866812	0.0	772.7172557792665	237.69399906010523	0.0	648.7925625035962	300.77152421225475	0.0	613.5886676454462	429.23756957079917	0.0	692.1018918568345	436.6895734418506	0.0	829.2800276126292	300.3378768592025	0.0	851.3870157055501	428.14661077994487	0.0	793.0420484484922	467.0802609593337	0.0
40	1.3333333333333333	741.5482270921882	524.8261064288453	0.0	689.3583340903458	535.8716559701619	0.0	691.9111069399542	733.6290782944966	0.0	691.0309954400464	897.3984696612241	0.0	699.6531035654124	954.8048653564751	0.0	667.7992214292279	951.8293681319415	0.0	698.075010082021	915.1728105901218	0.0	792.7658271392514	538.0329310046075	0.0	797.3037816145717	728.9682244746737	0.0	827.8146406167554	892.0542844582191	0.0	794.258857246028	951.2748366034527	0.0	829.2337706154152	949.6126831721953	0.0	837.2275107904503	913.8845165932801	0.0	746.1976122300001	259.0828120524986	0.0	772.6640075956435	145.84576864479646	0.0	780.640002128996	231.95547739394726	0.0	651.3607286702165	299.0872581248066	0.0	617.2281248671861	428.8279493309492	0.0	695.2277884938591	435.1722586198594	0.0	831.6564873975234	300.8819685193143	0.0	854.1259240888622	428.04124102758465	0.0	796.5771867866926	465.6996440453761	0.0
41	1.3666666666666667	744.2096137919248	524.866024295164	0.0	692.050202887884	536.4399703639518	0.0	694.0891562582893	734.422161377929	0.0	693.5113687766175	897.8878908804703	0.0	701.526881638615	954.9876063341499	0.0	669.5685704641597	951.6182692575222	0.0	700.7585659120034	916.0107373241451	0.0	795.7858483622103	538.1569112423335	0.0	800.4336062951901	729.1076897721738	0.0	830.270004695953	891.3876428414325	0.0	796.8303187688189	951.2991513739076	0.0	832.0471745160652	949.5668036892915	0.0	839.4146320679898	913.6900878752193	0.0	747.1476817769302	258.5242796908351	0.0	776.3706537522144	143.74346531128958	0.0	790.7634615219015	227.81492372072307	0.0	653.7534389013949	297.50760815093827	0.0	619.9402309924521	428.2827921282481	0.0	698.2609426238657	433.46284831315984	0.0	833.2615915449678	301.3701429177277	0.0	857.2316946421088	427.22566174913527	0.0	800.2816212950734	464.4669822985814	0.0
42	1.4	746.2965897958788	525.085206293591	0.0	694.3166782581653	536.5699719860601	0.0	696.0545132981342	735.2470874054836	0.0	695.4143073883581	898.0903450584963	0.0	703.0627157586143	955.923024183079	0.0	671.0801293342107	952.8305850944012	0.0	702.6800908721674	916.810968838286	0.0	798.2674041979697	538.1467518625252	0.0	803.2891974892515	729.108982788072	0.0	832.6287446966423	891.8666316559297	0.0	798.7521755220914	951.216454291613	0.0	834.2321693994404	949.705642520099	0.0	841.8559023778463	913.5344397096145	0.0	748.024132673183	258.10442503569976	0.0	779.9857351225871	141.48636552655177	0.0	800.852961308376	224.7020459301094	0.0	656.5413696161623	296.5388867682238	0.0	621.8879633425341	427.90380304664086	0.0	700.5398245634326	431.787239778723	0.0	834.2945629934386	301.1601413451067	0.0	861.8606537020793	426.0279816420406	0.0	804.2936152046636	463.07207667232325	0.0
43	1.4333333333333333	748.5519959468071	525.3820290461028	0.0	696.6586737930081	536.3514720866098	0.0	698.2913118192278	735.4588928343491	0.0	697.292656608046	898.0221100876977	0.0	705.5346206031311	956.7802777220423	0.0	673.4565370578837	954.2266989313299	0.0	703.9464140629898	917.4780087848612	0.0	800.4154127007811	538.1242400870996	0.0	806.0325983233099	728.9700431200868	0.0	834.7008813116191	892.3207959785211	0.0	800.3787712503095	950.8283245387163	0.0	835.6485857797081	950.1069424124204	0.0	843.790728193509	913.2223304401936	0.0	749.6372027704333	256.8470660836797	0.0	783.0496836285322	138.8135369585119	0.0	808.8856291281663	221.194007702096	0.0	659.7396340639922	296.4759727296596	0.0	624.0585217593459	428.4019367146335	0.0	702.0153471692619	430.0748273610169	0.0	835.3116007436704	300.3157666228912	0.0	867.6607605304414	425.26991935384854	0.0	808.1420267297387	461.7784870049292	0.0
44	1.4666666666666666	751.2050592169495	526.1596448461288	0.0	699.1793450234127	537.2166663751167	0.0	700.8240490223297	735.1121259845264	0.0	699.3666592228202	898.0017792436688	0.0	708.73649055617	956.824964934552	0.0	676.1868287533341	954.2819148340719	0.0	705.2532835235586	918.019487739914	0.0	802.4124453707659	538.7849427490686	0.0	808.6084645781146	729.0092540566089	0.0	836.7471156698148	891.7391237159045	0.0	802.4211188228593	950.6245423642622	0.0	836.6137960271662	950.4223025000806	0.0	845.1727753463173	912.7451945281052	0.0	752.1428903049502	254.9917483877393	0.0	785.6829764503304	135.7992177600873	0.0	815.1018407149255	216.95535341687702	0.0	662.56157911894	296.48726789299934	0.0	626.7735860336292	429.25359638530904	0.0	703.9785348162636	428.38251806747985	0.0	837.3549443026822	299.4297904690899	0.0	872.5818617988939	424.84867738819275	0.0	811.5633172426659	461.3836392089289	0.0
45	1.5	753.8134075057501	526.9503634108258	0.0	701.6577738485701	538.5772958160858	0.0	703.4144755520465	734.2843575954788	0.0	701.4630704900428	897.9516177308337	0.0	711.3516227483435	956.1053264460818	0.0	678.4241782030008	952.8208875584576	0.0	707.3655915494378	918.1329059826421	0.0	804.3162038712627	539.326028090743	0.0	810.9594899289499	729.0581533776779	0.0	839.0453308943569	890.8700659301711	0.0	805.1391168041396	951.1660410262494	0.0	838.1245573706607	950.656228661933	0.0	846.779652152587	912.5027156108565	0.0	755.3152515428559	253.45702844990987	0.0	787.8646831143686	132.71685649374206	0.0	820.3458207822173	212.47743071862163	0.0	664.4284805267854	295.62947161352093	0.0	629.5484922193889	429.4864048828141	0.0	707.1233836093113	426.9357011450804	0.0	840.7731858367273	298.86227552712256	0.0	875.8535287761692	424.19240989336026	0.0	815.0455074602062	461.5003697233387	0.0
46	1.5333333333333332	756.0470590503828	526.474162525078	0.0	704.176902316445	538.0727658231327	0.0	705.6600176203808	732.7344327889418	0.0	703.4893604564402	897.6242429426032	0.0	712.9862906629327	955.6619780131792	0.0	680.4815507826199	951.5048459887073	0.0	710.0627846694924	918.0066170646916	0.0	806.300534577315	538.2834981127902	0.0	813.239274538749	728.1321203780018	0.0	841.3586561737317	890.615355875204	0.0	808.0834884650365	952.0033363448979	0.0	840.5825287613861	950.8611134150034	0.0	848.6102834028684	912.4816092772492	0.0	758.966160095097	252.13500264904022	0.0	789.3216971536796	129.94376852353705	0.0	824.6056211356967	207.87442145618024	0.0	665.8581915856396	294.3888427834214	0.0	631.8201831406498	429.17128515687443	0.0	709.9025820511268	425.6924608110784	0.0	844.6042667315905	298.4916830681883	0.0	878.8533778542248	423.5881299784711	0.0	818.365631352862	460.76921695657074	0.0
47	1.5666666666666667	758.1715268925541	524.8443590450188	0.0	706.6915616413377	535.8781761969326	0.0	707.5881490574611	730.8640074402228	0.0	705.5476708658648	897.3742373605512	0.0	714.6287787390559	955.6894777671496	0.0	682.6623759654766	951.3067485429161	0.0	712.4515913217617	918.335227168516	0.0	808.6323045137326	536.3991448871649	0.0	815.342543639632	726.3690699016972	0.0	843.4232774825232	890.9035266317155	0.0	810.5055474663382	952.4526137871494	0.0	843.1983623388217	951.0171744729166	0.0	850.2214567050595	912.7608490945114	0.0	762.2909335740962	250.59832596336034	0.0	790.3849455005741	128.07186124533985	0.0	827.7065802098352	203.59137104378016	0.0	667.6837405769636	293.66966491852907	0.0	633.5914219423032	428.839887317297	0.0	711.4238813065765	424.39352941990705	0.0	847.7110219452189	297.8549394339852	0.0	882.0950017834734	423.6029442056271	0.0	820.6581602612422	458.70598151381324	0.0
48	1.6	760.582028714832	523.4185518904867	0.0	708.8827290087378	534.4950523748863	0.0	709.7924086468022	730.2219499709724	0.0	707.6027670820613	897.6589614663537	0.0	716.9843069976291	955.3943165661987	0.0	684.5345721168825	951.3277521651999	0.0	714.2061025431151	918.9951460955469	0.0	811.3043881788317	535.6455184555982	0.0	817.1989197012765	725.5178263975379	0.0	845.3134605969825	891.2480344312919	0.0	812.1520054826404	952.4444370650223	0.0	845.3251686047765	951.2777318187331	0.0	851.9545202758342	913.4560368670323	0.0	764.1595048847676	249.20282729802472	0.0	791.7727526620416	127.31438916856021	0.0	829.9890079032187	201.13754904930065	0.0	670.024660374523	293.10650768989655	0.0	635.2987531643162	428.4670702622892	0.0	713.5335328052253	422.8835006850868	0.0	849.7868387077706	296.53724294516394	0.0	884.9196661777012	423.40795906805477	0.0	822.7849470326839	456.1033789131104	0.0
49	1.6333333333333333	763.0950370626066	522.5973659745989	0.0	710.8146576383193	534.480623946321	0.0	712.358335152916	731.3060130957666	0.0	709.5867440534954	898.1824222307224	0.0	719.7810181070593	954.6945284021756	0.0	686.0697371368385	950.8738502092983	0.0	715.655302727299	919.1454488810381	0.0	814.0102816132174	535.9176603833988	0.0	819.1747788532064	725.9947200586062	0.0	847.0266274355149	891.2303865134475	0.0	813.3616470164345	952.0303562992897	0.0	847.0236274853081	951.5208137766376	0.0	854.0616680087014	913.9602428125595	0.0	764.790121134718	248.34426087470126	0.0	793.6022956515374	127.04579317070215	0.0	832.0140294984169	200.95121828392405	0.0	672.3974635406747	292.0975204781198	0.0	637.0783431550445	427.86164729708725	0.0	717.3535688103432	421.18799076570133	0.0	851.3427172841181	295.0469503751621	0.0	887.1640981129395	421.8739631236301	0.0	826.6341983538263	453.8114549929728	0.0
